<?xml version="1.0" encoding="UTF-8" standalone="no"?>
<svg
   xmlns:dc="http://purl.org/dc/elements/1.1/"
   xmlns:cc="http://creativecommons.org/ns#"
   xmlns:rdf="http://www.w3.org/1999/02/22-rdf-syntax-ns#"
   xmlns:svg="http://www.w3.org/2000/svg"
   xmlns="http://www.w3.org/2000/svg"
   xmlns:sodipodi="http://sodipodi.sourceforge.net/DTD/sodipodi-0.dtd"
   xmlns:inkscape="http://www.inkscape.org/namespaces/inkscape"
   width="479.25"
   height="87.421875"
   viewBox="0 0 479.25 87.421875"
   version="1.1"
   id="SVGRoot"
   sodipodi:docname="logo2.svg"
   inkscape:version="1.0.2-2 (e86c870879, 2021-01-15)">
  <title
     id="title61">GatsbyMDX</title>
  <defs
     id="defs40" />
  <sodipodi:namedview
     id="base"
     pagecolor="#ffffff"
     bordercolor="#666666"
     borderopacity="1.0"
     inkscape:pageopacity="0.0"
     inkscape:pageshadow="2"
     inkscape:zoom="0.99"
     inkscape:cx="215.72908"
     inkscape:cy="127.0603"
     inkscape:document-units="px"
     inkscape:current-layer="layer1"
     inkscape:document-rotation="0"
     showgrid="false"
     inkscape:window-width="1350"
     inkscape:window-height="728"
     inkscape:window-x="0"
     inkscape:window-y="0"
     inkscape:window-maximized="0">
    <inkscape:grid
       type="xygrid"
       id="grid63"
       originx="-129.72546"
       originy="-244.77231" />
  </sodipodi:namedview>
  <metadata
     id="metadata43">
    <rdf:RDF>
      <cc:Work
         rdf:about="">
        <dc:format>image/svg+xml</dc:format>
        <dc:type
           rdf:resource="http://purl.org/dc/dcmitype/StillImage" />
        <dc:title>GatsbyMDX</dc:title>
      </cc:Work>
    </rdf:RDF>
  </metadata>
  <g
     inkscape:label="Слой 1"
     inkscape:groupmode="layer"
     id="layer1"
     style="display:inline;opacity:1"
     transform="translate(-129.72546,-244.77231)">
    <g
       aria-label="GatsbyMDX"
       id="text55"
       style="font-style:normal;font-variant:normal;font-weight:bold;font-stretch:normal;font-size:96px;line-height:1.25;font-family:Candara;-inkscape-font-specification:'Candara Bold';text-align:center;text-anchor:middle;display:inline">
      <path
         d="m 181.14734,309.83481 c -7.4375,1.90625 -13.65625,2.85937 -18.65625,2.85937 -10.75,0 -18.90625,-2.9375 -24.46875,-8.8125 -5.53125,-5.90625 -8.29688,-13.0625 -8.29688,-21.46875 0,-8.84375 3.01563,-16.53125 9.04688,-23.0625 6.0625,-6.53125 14.45312,-9.79687 25.17187,-9.79687 5.03125,0 9.46875,0.45312 13.3125,1.35937 l -1.54687,11.0625 c -4.90625,-1.28125 -9.3125,-1.92187 -13.21875,-1.92187 -6.59375,0 -11.51563,2.03125 -14.76563,6.09375 -3.25,4.03125 -4.875,8.96875 -4.875,14.8125 0,5.96875 1.8125,11.17187 5.4375,15.60937 3.65625,4.4375 8.6875,6.65625 15.09375,6.65625 1.78125,0 3.84375,-0.1875 6.1875,-0.5625 -0.46875,-3.46875 -0.70312,-6.875 -0.70312,-10.21875 0,-3.375 0.65625,4.21875 0,0 l 12.28125,-11.39062 c -0.25,4.8125 -0.375,9.65625 -0.375,14.53125 0,3.53125 0.125,8.28125 0.375,14.25 z"
         style="fill:#003380"
         id="path96"
         sodipodi:nodetypes="cscscsccscscscsccsc" />
      <path
         d="m 229.14734,311.38168 -11.0625,0.375 q -0.75,-1.96875 -0.75,-3.5625 h -0.60938 q -5.15625,4.40625 -13.92187,4.40625 -5.85938,0 -9.75,-3.23437 -3.84375,-3.28125 -3.84375,-8.67188 0,-7.125 6,-11.67187 6.04687,-4.54688 21.14062,-4.82813 0.0937,-0.84375 0.0937,-1.59375 0,-5.0625 -2.4375,-6.65625 -2.4375,-1.64062 -8.95312,-1.64062 -7.07813,0 -13.82813,1.875 l 1.03125,-8.625 q 6.375,-2.20313 18,-2.20313 8.48438,0 13.07813,3.5625 4.64062,3.5625 4.64062,12.46875 0,1.96875 -0.1875,7.17188 -0.14062,5.20312 -0.14062,6.9375 0,9.70312 1.5,15.89062 z m -12.51563,-9.75 q -0.28125,-6.32812 -0.28125,-10.92187 -15.98437,0 -15.98437,8.10937 0,5.57813 7.03125,5.57813 5.53125,0 9.23437,-2.76563 z"
         style="fill:#003380"
         id="path98" />
      <path
         d="m 265.94421,302.66293 -0.79687,8.34375 q -3.28125,1.40625 -8.25,1.40625 -7.59375,0 -11.4375,-4.125 -3.84375,-4.125 -3.84375,-15.89062 0,-7.07813 0.0937,-16.03125 -2.39063,0 -6.46875,0.28125 l 0.32812,-9.23438 q 3.60938,0.28125 6.70313,0.28125 0.0469,-2.48437 0.375,-13.07812 l 11.10937,-1.35938 q -0.70312,9.32813 -0.70312,14.4375 3.9375,0 11.76562,-0.375 l -0.375,9.32813 q -7.125,-0.28125 -11.57812,-0.28125 -0.0937,6.23437 -0.0937,13.07812 0,8.34375 1.6875,11.20313 1.6875,2.8125 5.95312,2.8125 2.57813,0 5.53125,-0.79688 z m -17.67187,-35.76562 z"
         style="fill:#003380"
         id="path100" />
      <path
         d="m 304.85046,298.63168 q 0,14.0625 -20.8125,14.0625 -7.59375,0 -13.26562,-1.64062 l 1.59375,-9.23438 q 5.85937,2.10938 11.67187,2.10938 5.625,0 7.78125,-0.9375 2.20313,-0.9375 2.20313,-3.14063 0,-3.42187 -7.875,-6.51562 -6.89063,-2.71875 -10.03125,-5.34375 -4.3125,-3.65625 -4.3125,-8.95313 0,-6.23437 4.64062,-10.03125 4.64063,-3.79687 13.5,-3.79687 8.29688,0 13.03125,1.45312 l -1.59375,9.28125 q -5.29687,-2.0625 -11.4375,-2.0625 -7.5,0 -7.5,3.84375 0,1.96875 1.59375,3.1875 1.59375,1.17188 6.51563,3 6.79687,2.48438 9.89062,5.10938 4.40625,3.75 4.40625,9.60937 z"
         style="fill:#003380"
         id="path102" />
      <path
         d="m 358.05359,287.24106 q 0,10.17187 -5.8125,17.85937 -5.8125,7.6875 -15.98438,7.6875 -7.5,0 -10.59375,-3.1875 h -0.60937 l -0.9375,1.82813 h -11.01563 q 0.60938,-16.45313 0.60938,-34.82813 0,-17.29687 -1.54688,-31.07812 l 13.45313,-0.75 q -0.46875,10.92187 -0.46875,24.70312 h 0.5625 q 4.73437,-4.17187 12.79687,-4.17187 9,0 14.25,6.51562 5.29688,6.46875 5.29688,15.42188 z m -12.46875,1.21875 q 0,-5.85938 -3,-10.125 -2.95313,-4.3125 -8.15625,-4.3125 -6.46875,0 -9.46875,3.79687 0,16.03125 0.70312,24.14063 2.95313,2.29687 7.64063,2.29687 6.23437,0 9.23437,-4.59375 3.04688,-4.64062 3.04688,-11.20312 z"
         style="fill:#003380"
         id="path104" />
      <path
         d="m 406.66296,266.89731 q 0,3.04687 -6.70312,19.3125 -7.64063,18.70312 -9.42188,25.5 -3.04687,11.71875 -8.20312,16.17187 -4.96875,4.3125 -14.90625,4.3125 l -0.9375,-9.04687 q 5.8125,0 9.5625,-3.32813 3.75,-3.28125 3.75,-8.8125 0,-5.57812 -8.4375,-24.375 -8.4375,-18.84375 -8.4375,-19.73437 h 14.48437 q 0,1.64062 4.26563,15.89062 4.26562,14.25 4.26562,17.4375 h 0.65625 q 0,-2.71875 3.84375,-16.03125 3.89063,-13.35937 3.89063,-17.29687 z"
         style="fill:#003380"
         id="path106" />
      <path
         d="m 485.45984,311.42856 h -13.64063 q 0,-7.96875 -0.98437,-26.85938 -0.98438,-18.9375 -1.03125,-23.625 h -0.70313 q -0.46875,2.8125 -2.48437,10.40625 -2.01563,7.59375 -7.59375,22.40625 -5.53125,14.76563 -5.53125,17.67188 h -10.35938 q 0,-3 -5.34375,-17.85938 -5.29687,-14.85937 -6.9375,-20.8125 -1.64062,-5.95312 -2.625,-11.8125 h -0.70312 q -0.0469,5.85938 -1.17188,25.125 -1.07812,19.26563 -1.07812,25.35938 h -12.375 q 0,-1.40625 3.375,-28.17188 3.42187,-26.76562 3.42187,-32.85937 h 18.14063 q 0,5.25 5.71875,23.15625 5.76562,17.90625 5.76562,22.92187 h 0.70313 q 0,-5.0625 6.51562,-22.96875 6.5625,-17.90625 6.5625,-23.10937 h 18 q 0,9.70312 2.15625,34.64062 2.20313,24.89063 2.20313,26.39063 z"
         style="fill:#37c8ab"
         id="path108" />
      <path
         d="m 549.49109,278.80356 q 0,13.3125 -8.53125,23.25 -8.53125,9.9375 -23.90625,9.9375 -6.9375,0 -19.125,-0.5625 0.60937,-14.15625 0.60937,-31.92188 0,-17.0625 -0.60937,-29.10937 h 8.20312 q 2.01563,0 6,-0.14063 3.98438,-0.14062 5.20313,-0.14062 16.92187,0 24.51562,8.4375 7.64063,8.4375 7.64063,20.25 z m -12.79688,2.01562 q 0,-9 -5.25,-15.14062 -5.25,-6.1875 -16.03125,-6.1875 -2.01562,0 -5.53125,0.42187 0.46875,9.375 0.46875,19.59375 0,11.20313 0.46875,22.21875 3.04688,0.60938 6.09375,0.60938 10.07813,0 14.90625,-6.23438 4.875,-6.28125 4.875,-15.28125 z"
         style="fill:#37c8ab"
         id="path110" />
      <path
         d="m 608.97546,311.42856 h -15.70312 q 0,-1.64063 -5.34375,-12.04688 -5.20313,-10.17187 -7.45313,-13.26562 h -0.75 q -2.01562,2.76562 -6.75,12.98437 -4.875,10.45313 -4.875,12.32813 h -14.48437 q 0,-1.40625 9.09375,-15.79688 9.14062,-14.39062 11.71875,-16.92187 v -0.70313 q -2.53125,-2.90625 -9.98438,-14.25 -7.6875,-11.85937 -7.6875,-13.35937 h 15.09375 q 0,1.5 4.35938,10.07812 4.35937,8.57813 6.14062,10.73438 h 0.75 q 1.73438,-2.20313 5.85938,-10.73438 4.17187,-8.53125 4.17187,-10.07812 h 13.875 q 0,1.3125 -8.0625,13.03125 -8.01562,11.67187 -10.26562,13.875 v 0.70312 q 3.09375,3.375 11.67187,17.53125 8.625,14.15625 8.625,15.89063 z"
         style="fill:#37c8ab"
         id="path112" />
    </g>
  </g>
</svg>
